# xmcd
#
# Track frame offsets:
#	150
#	13583
#	28510
#	44440
#	62368
#	83192
#	99903
#	111953
#	127955
#	147390
#	161248
#	178822
#	199480
#	217110
#	238923
#	256603
#	276218
#
# Disc length: 3965 seconds
#
# Revision: 3
# Processed by: cddbd v1.5.2PL0 Copyright (c) Steve Scherf et al.
# Submitted via: audiograbber 1.83.01
#
DISCID=f60f7b11
DTITLE=Various Artist - Goin' South Volume 2
DYEAR=2002
DGENRE=Southern Rock
TTITLE0=Allman Brothers Band - Midnight Rider
TTITLE1=Marshall Tucker Band - Can't You See
TTITLE2=Lynyrd Skynyrd - What's Your Name
TTITLE3=Charlie Daniels Band - The South's Gonna Do It Again
TTITLE4=38 Special - Caught Up In You
TTITLE5=Gregg Allman - I'm No Angel
TTITLE6=Black Oak Arkansas - Jim Dandy
TTITLE7=James Gang - Walk Away
TTITLE8=George Thorogood and the Destroyers - Move It On Over
TTITLE9=The Outlaws - There Goes Another Love Song
TTITLE10=Rossington Collins Band - Don't Misunderstand Me
TTITLE11=Elvin Bishop - Fooled Around And Fell In Love
TTITLE12=Foghat - Slow Ride
TTITLE13=Molly Hatchet - The Rambler
TTITLE14=Wet Willie - Keep On Smilin'
TTITLE15=Atlanta Rhythm Section - So Into You
TTITLE16=Lynyrd Skynyrd - Free Bird
EXTD=
EXTT0=
EXTT1=
EXTT2=
EXTT3=
EXTT4=
EXTT5=
EXTT6=
EXTT7=
EXTT8=
EXTT9=
EXTT10=
EXTT11=
EXTT12=
EXTT13=
EXTT14=
EXTT15=
EXTT16=
PLAYORDER=
